<svg width="14" height="19" viewBox="0 0 14 19" fill="none" xmlns="http://www.w3.org/2000/svg">
<path d="M2.375 0C1.06504 0 0 1.06504 0 2.375V16.625C0 17.935 1.06504 19 2.375 19H10.6875C11.9975 19 13.0625 17.935 13.0625 16.625V2.375C13.0625 1.06504 11.9975 0 10.6875 0H2.375ZM5.34375 16.0312H7.71875C8.04531 16.0312 8.3125 16.2984 8.3125 16.625C8.3125 16.9516 8.04531 17.2188 7.71875 17.2188H5.34375C5.01719 17.2188 4.75 16.9516 4.75 16.625C4.75 16.2984 5.01719 16.0312 5.34375 16.0312Z" fill="#B2B2B2"/>
</svg>
