<svg width="17" height="20" viewBox="0 0 17 20" fill="none" xmlns="http://www.w3.org/2000/svg">
<g clip-path="url(#clip0_2_33)">
<path d="M5.46429 5.46429V7.28571H11.5357V5.46429C11.5357 3.78705 10.1772 2.42857 8.5 2.42857C6.82277 2.42857 5.46429 3.78705 5.46429 5.46429ZM3.03571 7.28571V5.46429C3.03571 2.44754 5.48326 0 8.5 0C11.5167 0 13.9643 2.44754 13.9643 5.46429V7.28571H14.5714C15.9109 7.28571 17 8.37478 17 9.71429V17C17 18.3395 15.9109 19.4286 14.5714 19.4286H2.42857C1.08906 19.4286 0 18.3395 0 17V9.71429C0 8.37478 1.08906 7.28571 2.42857 7.28571H3.03571Z" fill="#B2B2B2"/>
</g>
<defs>
<clipPath id="clip0_2_33">
<rect width="17" height="19.4286" fill="white"/>
</clipPath>
</defs>
</svg>
