<svg width="17" height="19" viewBox="0 0 17 19" fill="none" xmlns="http://www.w3.org/2000/svg">
<g clip-path="url(#clip0_2_12)">
<path d="M8.5 9.5C9.78819 9.5 11.0236 8.99956 11.9345 8.10876C12.8454 7.21796 13.3571 6.00978 13.3571 4.75C13.3571 3.49022 12.8454 2.28204 11.9345 1.39124C11.0236 0.500445 9.78819 0 8.5 0C7.21181 0 5.97637 0.500445 5.06548 1.39124C4.15459 2.28204 3.64286 3.49022 3.64286 4.75C3.64286 6.00978 4.15459 7.21796 5.06548 8.10876C5.97637 8.99956 7.21181 9.5 8.5 9.5ZM6.76585 11.2812C3.02813 11.2812 0 14.2426 0 17.8979C0 18.5064 0.504688 19 1.12701 19H15.873C16.4953 19 17 18.5064 17 17.8979C17 14.2426 13.9719 11.2812 10.2342 11.2812H6.76585Z" fill="#B2B2B2"/>
</g>
<defs>
<clipPath id="clip0_2_12">
<rect width="17" height="19" fill="white"/>
</clipPath>
</defs>
</svg>
