<svg width="17" height="19" viewBox="0 0 17 19" fill="none" xmlns="http://www.w3.org/2000/svg">
<path d="M3.5625 0C1.5957 0 0 1.5957 0 3.5625V15.4375C0 17.4043 1.5957 19 3.5625 19H14.25H15.4375C16.0943 19 16.625 18.4693 16.625 17.8125C16.625 17.1557 16.0943 16.625 15.4375 16.625V14.25C16.0943 14.25 16.625 13.7193 16.625 13.0625V1.1875C16.625 0.530664 16.0943 0 15.4375 0H14.25H3.5625ZM3.5625 14.25H13.0625V16.625H3.5625C2.90566 16.625 2.375 16.0943 2.375 15.4375C2.375 14.7807 2.90566 14.25 3.5625 14.25ZM4.75 5.34375C4.75 5.01719 5.01719 4.75 5.34375 4.75H12.4688C12.7953 4.75 13.0625 5.01719 13.0625 5.34375C13.0625 5.67031 12.7953 5.9375 12.4688 5.9375H5.34375C5.01719 5.9375 4.75 5.67031 4.75 5.34375ZM5.34375 7.125H12.4688C12.7953 7.125 13.0625 7.39219 13.0625 7.71875C13.0625 8.04531 12.7953 8.3125 12.4688 8.3125H5.34375C5.01719 8.3125 4.75 8.04531 4.75 7.71875C4.75 7.39219 5.01719 7.125 5.34375 7.125Z" fill="#FE9000"/>
</svg>
