<svg width="19" height="18" viewBox="0 0 19 18" fill="none" xmlns="http://www.w3.org/2000/svg">
<path d="M6.82812 1.78125H12.1719C12.3352 1.78125 12.4688 1.91484 12.4688 2.07812V3.5625H6.53125V2.07812C6.53125 1.91484 6.66484 1.78125 6.82812 1.78125ZM4.75 2.07812V3.5625H2.375C1.06504 3.5625 0 4.62754 0 5.9375V9.5H7.125H11.875H19V5.9375C19 4.62754 17.935 3.5625 16.625 3.5625H14.25V2.07812C14.25 0.931445 13.3186 0 12.1719 0H6.82812C5.68145 0 4.75 0.931445 4.75 2.07812ZM19 10.6875H11.875V11.875C11.875 12.5318 11.3443 13.0625 10.6875 13.0625H8.3125C7.65566 13.0625 7.125 12.5318 7.125 11.875V10.6875H0V15.4375C0 16.7475 1.06504 17.8125 2.375 17.8125H16.625C17.935 17.8125 19 16.7475 19 15.4375V10.6875Z" fill="#FE9000"/>
</svg>
