<svg width="15" height="15" viewBox="0 0 15 15" fill="none" xmlns="http://www.w3.org/2000/svg">
<path d="M14.5561 2.5617C15.1417 1.97604 15.1417 1.02492 14.5561 0.43926C13.9704 -0.146403 13.0193 -0.146403 12.4336 0.43926L7.49999 5.37757L2.56168 0.443946C1.97601 -0.141717 1.0249 -0.141717 0.439235 0.443946C-0.146428 1.02961 -0.146428 1.98072 0.439235 2.56639L5.37754 7.50001L0.443921 12.4383C-0.141742 13.024 -0.141742 13.9751 0.443921 14.5608C1.02958 15.1464 1.9807 15.1464 2.56636 14.5608L7.49999 9.62245L12.4383 14.5561C13.024 15.1417 13.9751 15.1417 14.5607 14.5561C15.1464 13.9704 15.1464 13.0193 14.5607 12.4336L9.62243 7.50001L14.5561 2.5617Z" fill="#FFF9FB"/>
</svg>
